<svg xmlns="http://www.w3.org/2000/svg" viewBox="0 0 120 120" width="120" height="120">
<circle cx="60" cy="60" r="60" fill="#FF6B4A"></circle>
<path d="M60 0 A60 60 0 0 1 116 40 L60 60 Z" fill="#ffffff" opacity=".14"></path>
<path d="M32 34q-16 -6 -14 -20 14 2 18 14M88 34q16 -6 14 -20-14 2-18 14" fill="#0B0E14"></path><circle cx="48" cy="54" r="5" fill="#0B0E14"></circle><circle cx="72" cy="54" r="5" fill="#0B0E14"></circle><ellipse cx="60" cy="74" rx="15" ry="11" fill="#0B0E14" opacity=".2"></ellipse><circle cx="54" cy="74" r="3.5" fill="#0B0E14"></circle><circle cx="66" cy="74" r="3.5" fill="#0B0E14"></circle><path d="M26 98h12M46 98h12M66 98h12M86 98h12" stroke="#0B0E14" stroke-width="5" stroke-linecap="round"></path>
</svg>