<svg xmlns="http://www.w3.org/2000/svg" viewBox="0 0 120 120" width="120" height="120">
<circle cx="60" cy="60" r="60" fill="#E0B87A"></circle>
<path d="M60 0 A60 60 0 0 1 116 40 L60 60 Z" fill="#ffffff" opacity=".14"></path>
<path d="M28 34l2-20 18 12M92 34l-2-20-18 12" fill="#0B0E14"></path><circle cx="47" cy="54" r="5" fill="#0B0E14"></circle><circle cx="73" cy="54" r="5" fill="#0B0E14"></circle><path d="M60 66l-5 5m5-5l5 5M36 62h-14M36 70h-14M84 62h14M84 70h14" stroke="#0B0E14" stroke-width="4" stroke-linecap="round"></path><path d="M20 96q40 14 80 0" stroke="#0B0E14" stroke-width="6" fill="none" stroke-linecap="round"></path><circle cx="38" cy="106" r="5" fill="#0B0E14"></circle><circle cx="82" cy="106" r="5" fill="#0B0E14"></circle>
</svg>